<?xml version="1.0" standalone="no"?>
<!DOCTYPE svg PUBLIC "-//W3C//DTD SVG 1.1//EN" "http://www.w3.org/Graphics/SVG/1.1/DTD/svg11.dtd" >
<!--
2013-9-30: Created.
-->
<svg>
<metadata>
Created by iconfont
</metadata>
<defs>

<font id="iconfont" horiz-adv-x="1024" >
  <font-face
    font-family="iconfont"
    font-weight="500"
    font-stretch="normal"
    units-per-em="1024"
    ascent="896"
    descent="-128"
  />
    <missing-glyph />
    
    <glyph glyph-name="x" unicode="x" horiz-adv-x="1001"
d="M281 543q-27 -1 -53 -1h-83q-18 0 -36.5 -6t-32.5 -18.5t-23 -32t-9 -45.5v-76h912v41q0 16 -0.5 30t-0.5 18q0 13 -5 29t-17 29.5t-31.5 22.5t-49.5 9h-133v-97h-438v97zM955 310v-52q0 -23 0.5 -52t0.5 -58t-10.5 -47.5t-26 -30t-33 -16t-31.5 -4.5q-14 -1 -29.5 -0.5
t-29.5 0.5h-32l-45 128h-439l-44 -128h-29h-34q-20 0 -45 1q-25 0 -41 9.5t-25.5 23t-13.5 29.5t-4 30v167h911zM163 247q-12 0 -21 -8.5t-9 -21.5t9 -21.5t21 -8.5q13 0 22 8.5t9 21.5t-9 21.5t-22 8.5zM316 123q-8 -26 -14 -48q-5 -19 -10.5 -37t-7.5 -25t-3 -15t1 -14.5
t9.5 -10.5t21.5 -4h37h67h81h80h64h36q23 0 34 12t2 38q-5 13 -9.5 30.5t-9.5 34.5q-5 19 -11 39h-368zM336 498v228q0 11 2.5 23t10 21.5t20.5 15.5t34 6h188q31 0 51.5 -14.5t20.5 -52.5v-227h-327z" />
    

    
    <glyph glyph-name="tuichu" unicode="&#58940;" d="M847.039147 318.735713 747.772306 418.000508 718.830137 389.057315 783.158235 324.730241 435.503257 324.730241 435.503257 283.797993 783.158235 283.797993 718.829114 219.469895 747.77333 190.524656 847.040171 289.792521ZM613.568768-59.927489 207.804325-59.927489 207.804325 668.453676 613.568768 668.453676 613.568768 403.528911 654.501016 403.528911 654.501016 709.385924 166.872077 709.385924 166.872077-100.859737 654.501016-100.859737 654.501016 204.997276 613.568768 204.997276Z"  horiz-adv-x="1024" />

    
    <glyph glyph-name="iconfonticonfontsquare" unicode="&#58889;" d="M832-128l-640 0c-52.928 0-96 43.072-96 96l0 640c0 52.928 43.072 96 96 96l640 0c52.928 0 96-43.072 96-96l0-640c0-52.928-43.072-96-96-96zM192 640c-17.632 0-32-14.368-32-32l0-640c0-17.664 14.368-32 32-32l640 0c17.664 0 32 14.336 32 32l0 640c0 17.632-14.336 32-32 32l-640 0z"  horiz-adv-x="1024" />

    
    <glyph glyph-name="service" unicode="&#59013;" d="M781.443 381.762c0 73.113-29.838 138.777-77.609 186.546-46.25 47.751-111.914 77.605-183.547 77.605-73.112 0-137.299-29.855-185.047-77.605-47.772-47.769-76.108-113.432-76.108-186.546 0-71.632 28.336-137.297 76.108-185.064 47.747-49.249 111.934-77.588 185.047-77.588 71.633 0 137.297 28.339 183.547 77.588 47.77 47.767 77.609 113.431 77.609 185.064M520.286 145.97c-64.166 0-123.878 26.864-165.657 70.14-41.777 41.776-68.659 101.468-68.659 165.653 0 65.665 26.881 125.356 68.659 167.135 41.779 43.276 101.492 70.135 165.657 70.135 64.163 0 122.378-26.86 164.157-70.135 41.779-41.779 68.66-101.47 68.66-167.135 0-64.185-26.881-123.876-68.66-165.653-41.779-43.278-99.992-70.14-164.157-70.14M574.007 253.412c-17.891-7.469-38.783-10.443-58.194-10.443-19.41 1.497-38.804 5.972-56.717 14.918-44.752 22.385-77.584 68.66-77.584 135.821h-28.377c0-79.107 40.302-134.323 92.545-161.183 22.385-10.448 46.25-16.415 70.134-17.913 22.39 0 46.253 4.471 68.638 13.439 52.243 23.865 92.545 76.107 98.496 164.16l-28.339 1.497c-4.493-76.13-38.823-120.886-80.602-140.296M876.657 465.079c-16.622 83.027-61.209 154.217-123.554 203.201-65.665 53.741-147.741 83.578-232.816 85.076-43.279 0-83.556-5.969-120.883-17.914-73.109-23.865-132.822-71.632-174.6-132.821-28.34-40.281-49.227-88.053-59.693-137.302-137.3-11.918-135.803-189.516 13.438-211.906l26.86 8.946c-14.935 41.801-20.887 85.077-20.887 126.854 1.497 73.135 23.882 141.772 62.666 196.993 38.804 56.715 94.020 99.99 161.183 122.378 34.307 11.942 71.636 16.417 111.916 16.417 79.103-1.498 155.21-29.838 214.923-77.605 58.174-46.253 99.972-111.918 114.891-189.522 0 0 64.508-276.213-220.067-387.886-6.073 7.226-14.856 11.801-24.672 11.801-19.415 0-34.331-14.918-34.331-34.307 0-17.914 14.916-32.833 34.331-32.833 16.251 0 29.896 12.328 32.324 27.996 132.762 51.553 196.18 136.102 224.883 216.075 125.901 31.313 128.127 181.564 14.088 206.362z"  horiz-adv-x="1024" />

    
    <glyph glyph-name="fuxuankuang" unicode="&#58929;" d="M510.934227 832.440405c-247.090585 0-447.39868-200.26-447.39868-447.498964 0-246.986207 200.308095-447.246207 447.39868-447.246207 247.086491 0 447.394586 200.258976 447.394586 447.246207C958.328813 632.180406 758.020718 832.440405 510.934227 832.440405zM440.639231 153.529955 229.711264 364.511133l70.289879 70.192665L440.639231 294.220231l281.225009 281.118586 70.291926-70.240761L440.639231 153.529955z"  horiz-adv-x="1024" />

    
    <glyph glyph-name="kefu" unicode="&#58906;" d="M928.49 533.846c-55.5 168.911-214.423 291.303-401.628 291.303s-346.128-122.392-401.627-291.303c-26.187-9.171-45.181-33.576-45.763-62.764v-137.877c0.582-29.249 19.687-53.766 45.988-62.827 50.618-153.367 186.645-268.014 351.627-287.598 8.922-5.499 19.36-8.811 30.64-8.811h44.613c32.379 0 58.698 26.263 58.698 58.642 0 32.379-26.318 58.642-58.698 58.642h-44.613c-19.136 0-36.027-9.315-46.689-23.513-121.269 23.794-219.529 112.066-257.857 227.498 7.912 11.111 12.683 24.635 12.683 39.394l-0 135.072c0 14.759-4.826 28.395-12.794 39.562 44.95 135.915 173.008 234.343 323.794 234.343s278.789-98.429 323.85-234.343c-8.025-11.167-12.794-24.804-12.794-39.562v-135.13c0-37.711 30.471-68.182 68.182-68.182s68.182 30.471 68.182 68.182l-0 135.13c-0.001 29.799-19.193 54.827-45.792 64.142zM327.647 488.256c-11.055-10.998-17.509-26.544-17.509-42.2s6.453-31.144 17.509-42.2c11.055-11.055 26.6-17.509 42.2-17.509 15.657 0 31.201 6.453 42.256 17.509 11.055 11.055 17.452 26.544 17.452 42.2s-6.398 31.201-17.452 42.2c-11.055 11.111-26.6 17.509-42.256 17.509-15.6-0-31.144-6.398-42.2-17.509zM684.674 505.765c-15.6 0-31.144-6.398-42.2-17.509-11.055-10.998-17.509-26.544-17.509-42.2s6.453-31.144 17.509-42.2c11.055-11.055 26.6-17.509 42.2-17.509 15.657 0 31.201 6.453 42.256 17.509 11.055 11.055 17.452 26.544 17.452 42.2s-6.398 31.201-17.452 42.2c-11.055 11.111-26.6 17.509-42.256 17.509z"  horiz-adv-x="1024" />

    
    <glyph glyph-name="xiaoxi" unicode="&#59346;" d="M830.445888 768.191866 177.488558 768.191866c-51.880484 0-89.537324-40.112721-89.537324-95.370041L87.951234 193.720396c0-53.415409 35.917258-89.332667 89.537324-89.332667l191.354052 0L483.348056-6.84321c6.139702-6.139702 14.223643-9.209553 22.307585-9.209553 8.18627 0 16.270211 3.172179 22.512241 9.311882l112.35655 111.026282 189.921455 0c53.415409 0 89.332667 35.917258 89.332667 89.332667L919.778555 672.821825C919.778555 728.079145 882.224043 768.191866 830.445888 768.191866zM856.334966 193.720396c0-18.419107-7.469971-25.889078-25.889078-25.889078L629.268312 167.831318c-0.409313 0-0.818627 0-1.22794 0-8.390926 0.204657-16.884181-2.967523-23.22854-9.311882l-99.360847-97.92825-101.305086 98.132907c-6.446687 6.344359-14.837614 9.41421-23.22854 9.107225-0.409313 0-0.818627 0-1.22794 0L177.488558 167.831318c-18.521435 0-26.093734 7.469971-26.093734 25.889078L151.394824 672.821825c0 9.618867 2.558209 31.926451 26.093734 31.926451l652.95733 0c23.330868 0 25.889078-22.307585 25.889078-31.926451L856.334966 193.720396zM312.255021 439.513141m-56.280604 0a55 55 0 1 0 112.561207 0 55 55 0 1 0-112.561207 0ZM512.818627 439.513141m-56.280604 0a55 55 0 1 0 112.561207 0 55 55 0 1 0-112.561207 0ZM712.051964 440.229439m-56.280604 0a55 55 0 1 0 112.561207 0 55 55 0 1 0-112.561207 0Z"  horiz-adv-x="1024" />

    
    <glyph glyph-name="danpin" unicode="&#58972;" d="M830.354286 781.531429l-20.662857 0 0 0L538.331429 781.531429l0 0-20.662857 0c-18.102857 0-33.28-12.434286-37.668571-29.257143l0-300.434286 0 0 0-20.662857c0-18.102857 12.434286-33.28 29.257143-37.668571l300.434286 0c10.788571 0 19.382857 8.594286 19.382857 19.382857s-8.594286 19.382857-19.382857 19.382857l-290.742857 0 38.582857 0c-34.56 0-38.582857 21.394286-38.582857 38.765714L518.948571 704c0 17.371429 4.022857 38.765714 38.582857 38.765714l233.325714 0c34.56 0 38.582857-21.394286 38.582857-38.765714l0-213.394286c0-10.788571 8.594286-19.382857 19.382857-19.382857s19.382857 8.594286 19.382857 19.382857L868.205714 752.274286C863.817143 769.097143 848.64 781.531429 830.354286 781.531429zM848.64 296.777143c-10.788571 0-19.382857-8.594286-19.382857-19.382857L829.257143 64c0-17.371429-4.022857-38.765714-38.582857-38.765714l38.582857 0L518.948571 25.234286l38.582857 0c-34.56 0-38.582857 21.394286-38.582857 38.765714L518.948571 296.777143c0 17.371429 4.022857 38.765714 38.582857 38.765714l252.342857 0c10.788571 0 19.382857 8.594286 19.382857 19.382857s-8.594286 19.382857-19.382857 19.382857L538.331429 374.308571l0 0-28.891429 0c-16.822857-4.205714-29.257143-19.382857-29.257143-37.485714l0-20.662857 0 0 0-300.434286c4.205714-16.822857 19.382857-29.257143 37.668571-29.257143l20.662857 0 0 0L810.057143-13.531429l0 0 20.662857 0c18.102857 0 33.28 12.434286 37.668571 29.257143L868.388571 277.394286C868.022857 288 859.245714 296.777143 848.64 296.777143zM1275.245714 336.64c0 18.102857-12.434286 33.28-29.257143 37.485714l-28.891429 0 0 0L945.554286 374.125714c-10.788571 0-19.382857-8.594286-19.382857-19.382857s8.594286-19.382857 19.382857-19.382857l252.342857 0c34.56 0 38.582857-21.394286 38.582857-38.765714L1236.48 64c0-17.371429-4.022857-38.765714-38.582857-38.765714l38.582857 0L926.171429 25.234286l38.582857 0c-34.56 0-38.582857 21.394286-38.582857 38.765714L926.171429 277.394286c0 10.788571-8.594286 19.382857-19.382857 19.382857s-19.382857-8.594286-19.382857-19.382857l0-261.668571c4.205714-16.822857 19.382857-29.257143 37.668571-29.257143l20.662857 0 0 0 271.542857 0 0 0L1237.942857-13.531429c18.102857 0 33.28 12.434286 37.668571 29.257143L1275.611429 316.16l0 0 0 20.48L1275.245714 336.64zM1237.76 781.531429l-20.662857 0 0 0L945.554286 781.531429l0 0-20.662857 0c-18.102857 0-33.28-12.434286-37.668571-29.257143l0-261.668571c0-10.788571 8.594286-19.382857 19.382857-19.382857s19.382857 8.594286 19.382857 19.382857L925.988571 704c0 17.371429 4.022857 38.765714 38.582857 38.765714l233.325714 0c34.56 0 38.582857-21.394286 38.582857-38.765714l0-232.777143c0-17.371429-4.022857-38.765714-38.582857-38.765714l38.582857 0L945.554286 432.457143c-10.788571 0-19.382857-8.594286-19.382857-19.382857s8.594286-19.382857 19.382857-19.382857l300.434286 0c16.822857 4.205714 29.257143 19.382857 29.257143 37.668571l0 20.662857 0 0L1275.245714 752.274286C1271.04 769.097143 1255.862857 781.531429 1237.76 781.531429z"  horiz-adv-x="1756" />

    
    <glyph glyph-name="xiaoxi1" unicode="&#59162;" d="M830.577778 782.222222l-637.155556 0c-37.6832 0-68.266667-30.560711-68.266667-68.266667l0-523.377778c0-37.705956 30.583467-68.266667 68.266667-68.266667l136.533333 0 0-113.777778c0-12.583822 14.085689-25.122133 26.669511-25.122133 2.571378 0-2.321067-0.773689 0 0 7.281778-1.524622 18.477511 3.959467 24.143644 9.602844L510.043022 122.311111 830.577778 122.311111c37.6832 0 68.266667 30.560711 68.266667 68.266667L898.844444 713.955556C898.844444 751.661511 868.260978 782.222222 830.577778 782.222222zM853.333333 213.333333c0-25.122133-20.388978-45.511111-45.511111-45.511111L496.344178 167.822222l-4.619378 0c-1.8432-1.001244-6.212267-5.688889-7.7824-7.236267L375.466667 52.087467 375.466667 145.066667c0 12.561067-10.171733 22.755556-22.755556 22.755556l-136.533333 0c-25.122133 0-45.511111 20.388978-45.511111 45.511111L170.666667 691.2c0 25.122133 20.388978 45.511111 45.511111 45.511111l591.644444 0c25.122133 0 45.511111-20.388978 45.511111-45.511111L853.333333 213.333333zM694.044444 463.644444m-45.511111 0a2 2 0 1 0 91.022222 0 2 2 0 1 0-91.022222 0ZM512 463.644444m-45.511111 0a2 2 0 1 0 91.022222 0 2 2 0 1 0-91.022222 0ZM329.955556 463.644444m-45.511111 0a2 2 0 1 0 91.022222 0 2 2 0 1 0-91.022222 0Z"  horiz-adv-x="1024" />

    
    <glyph glyph-name="02" unicode="&#59038;" d="M925.959624 59.177294l-28.245453 652.920247c-0.511693 46.973416-39.093344 84.838697-86.476114 84.838697H212.761943c-47.38277 0-85.964421-37.762942-86.476114-84.838697L98.142714 58.972616v-1.637417c0-47.587448 38.786328-86.271437 86.476115-86.271437h654.967019c47.689786 0 86.476114 38.786328 86.476115 86.373775-0.102339 0.511693-0.102339 1.125725-0.102339 1.739757z m-86.476114-14.736758h-654.96702c-7.163702 0-12.792325 5.526284-12.997002 12.38297l28.143114 652.920248v1.330402c0 7.061363 5.730961 12.38297 12.997002 12.38297h598.578453c7.26604 0 12.997002-5.219268 12.997002-12.280632v-1.43274L852.480512 56.823506c-0.204677-6.959025-5.8333-12.38297-12.997002-12.38297zM634.601639 654.276234c-20.263042 0-36.944233-16.476514-36.944233-36.739556v-110.935039c0-46.768739-38.274635-84.736358-85.35039-84.736358-47.075755 0-85.248051 38.069958-85.248051 84.736358V617.536678c0 20.263042-16.374175 36.739556-36.637218 36.739556-20.263042 0-36.637218-16.476514-36.637218-36.739556v-110.935039c0-87.192485 71.330002-158.215471 158.931841-158.215471 87.601839 0 158.931841 71.022986 158.931841 158.215471V617.536678c-0.102339 20.365381-16.78353 36.739556-37.046572 36.739556z"  horiz-adv-x="1024" />

    
    <glyph glyph-name="shouye" unicode="&#58884;" d="M512 832S234.8 592.8 80 463.2c-9.1-8.2-16-20.3-16-34.4C64 404 84 384 108.8 384h89.6v-403.2c0-24.8 20-44.8 44.8-44.8h134.4c24.8 0 44.8 20.1 44.8 44.8V174.9h179.2v-194.1c0-24.7 20-44.8 44.8-44.8h134.4c24.8 0 44.8 20 44.8 44.8V384h89.6c24.8 0 44.8 20 44.8 44.8 0 14.1-6.9 26.2-17.2 34.4C789 592.8 511.9 832 512 832z"  horiz-adv-x="1024" />

    
    <glyph glyph-name="wode" unicode="&#58885;" d="M780.6 316.7c-23.3 28.3-50.8 52.7-81.6 72.4-27.6 17.6-57.4 31.2-88.6 40.4 69.7 36.3 114.3 108.6 114.6 187.9 0.2 57.1-21.7 110.7-61.8 150.9-40 40.2-93.5 62.4-150.6 62.5h-0.3c-56.8 0-110.1-22.1-150.3-62.2-40.2-40.2-62.4-93.6-62.4-150.5 0-79.6 44.5-152.2 114.6-188.7-31.3-9.2-61-22.7-88.6-40.4-30.9-19.7-58.3-44.1-81.6-72.4-48.5-58.6-75.7-129.7-78.8-205.6-0.2-5.2 1.6-10.1 5.2-13.8 3.6-3.8 8.5-5.8 13.7-5.8h0.2c10.2 0 18.5 8 18.9 18.2 3.2 77.5 35.3 150.4 90.3 205.4 57.6 57.6 137.2 90.6 218.6 90.6 82.6 0 160.2-32.2 218.6-90.6 55-55 87-127.9 90.3-205.4 0.4-10.2 8.7-18.2 18.9-18.2h0.2c5.2 0 10.1 2.1 13.7 5.8 3.6 3.7 5.4 8.6 5.2 13.8-3 75.9-30.2 147-78.4 205.7z m-93.8 301.5c0-96.3-78.3-174.6-174.6-174.6s-174.6 78.3-174.6 174.6 78.3 174.6 174.6 174.6 174.6-78.3 174.6-174.6z"  horiz-adv-x="1024" />

    
    <glyph glyph-name="MeasureModelItem" unicode="&#58625;" d="M128.010 218.082l549.583 550.894 218.397-218.919-549.582-551.032-218.398 219.057zM174.732 220.623l174.749-175.184 503.811 502.966-175.772 176.205-49.267-49.255 51.462-52.62-17.847-17.884-51.332 52.618-46.53-46.647 108.073-109.366-17.847-17.885-107.051 110.391-47.557-47.672 51.463-52.618-16.823-18.909-51.461 52.618-47.558-44.6 108.075-109.365-17.848-19.932-108.073 109.364-45.508-44.6 51.33-52.486-18.87-19.932-51.331 53.51-45.509-43.577 106.026-108.339-18.87-20.96-108.074 109.368-43.46-46.646 50.438-53.645-17.846-20.957-51.068 53.148-49.926-47.105z"  horiz-adv-x="1024" />

    
    <glyph glyph-name="xiangji" unicode="&#58674;" d="M860.16 633.344h-75.264l-26.112 78.336c-14.336 43.008-54.272 71.68-99.328 71.68h-294.4c-45.056 0-84.992-28.672-99.328-71.68l-26.112-78.336h-75.264c-57.344 0-104.448-46.592-104.448-104.448v-447.488c0-57.344 46.592-104.448 104.448-104.448H860.16c57.856 0 104.448 46.592 104.448 104.448v447.488c0 57.344-46.592 104.448-104.448 104.448z m-740.352-104.448c0 24.576 19.968 44.544 44.544 44.544h78.848c24.064 0 45.056 15.36 52.224 37.376l27.136 81.92c6.144 18.432 23.04 30.72 42.496 30.72h293.888c19.456 0 36.352-12.288 42.496-30.72l27.136-81.92c7.68-22.016 28.672-37.376 52.224-37.376h79.36c24.576 0 44.544-19.968 44.544-44.544v-447.488c0-24.576-19.968-44.544-44.544-44.544h-695.808c-24.576 0-44.544 19.968-44.544 44.544v447.488zM512 126.464c112.64 0 203.776 92.16 203.776 204.288s-91.136 203.776-203.776 203.776c-112.128 0-203.776-92.16-203.776-204.288s91.136-203.776 203.776-203.776z m0 348.16c79.872 0 144.384-64.512 143.872-143.872 0-79.36-64.512-143.872-143.872-143.872s-143.872 64.512-143.872 143.872 64.512 143.872 143.872 143.872z"  horiz-adv-x="1024" />

    
    <glyph glyph-name="dizhi" unicode="&#58626;" d="M580.799 682.618c0 39.314-31.771 71.205-70.927 71.205-39.163 0-70.898-31.892-70.898-71.205 0-39.346 31.737-71.205 70.898-71.205 39.157 0.001 70.927 31.86 70.927 71.205v0zM580.799 682.618zM509.872 185.723c0 0 260.262 258.105 260.257 483.952 0 225.845-260.257 225.845-260.257 225.845s-260.263 0-260.263-225.845c0-225.846 260.263-483.952 260.263-483.952v0zM327.557 700.58c1.699 7.514 4.532 14.633 7.396 21.75 1.014 2.496 1.57 5.084 2.708 7.549 3.053 6.561 7.027 12.63 11.001 18.734 1.972 3.017 3.546 6.191 5.702 9.121 3.168 4.188 6.962 7.889 10.535 11.799 4.097 4.526 8.007 9.149 12.66 13.31 1.972 1.757 4.287 3.174 6.347 4.839 6.905 5.638 14.023 11.029 21.936 15.681 0.278 0.187 0.558 0.278 0.835 0.43 19.135 11.185 40.949 19.569 65.316 23.822 12.172 2.188 24.773 3.359 37.683 3.359 0.063 0 0.126 0.031 0.19 0.031h0.087c13.129 0 25.881-1.264 38.239-3.511 6.718-1.206 12.817-3.359 19.164-5.181 5.425-1.508 11.063-2.682 16.269-4.654 5.302-2.002 10.048-4.682 15.067-7.085 5.981-2.837 12.020-5.517 17.596-8.877 2.465-1.57 4.62-3.387 7.026-5.018 35.090-23.694 60.419-57.588 68.954-96.965 2.309-9.95 3.511-19.998 3.511-30.041 0-161.326-185.911-387.172-185.911-387.172s-185.886 225.846-185.886 387.172c0 10.384 1.265 20.735 3.574 30.906v0zM327.557 700.58zM983.102 422.32c-3.945 19.719-118.316-7.885-165.642-23.661 0 0-21.844-63.228 0-70.99 26.589-9.428 94.651 23.66 94.651 23.66v-307.583c0 0-240.542-98.565-260.262-94.625-19.722 3.946-260.263 106.457-283.923 94.625-23.665-11.834-260.262-70.96-260.262-70.96v307.559c0 0 109.503 26.839 118.316 47.326 10.601 24.801 7.886 82.82-70.991 47.325-78.876-35.497-118.316-70.991-118.316-70.991v-378.544c0 0 23.666-63.101 70.991-47.326s260.262 94.652 260.262 94.652 252.374-90.71 283.923-94.652c31.551-3.945 330.267 87.503 331.252 118.311 3.232 103.899 3.91 406.154 0 425.874v0zM983.102 422.32z"  horiz-adv-x="1024" />

    
    <glyph glyph-name="checkBox" unicode="&#59081;" d="M512 827.733333A443.733333 443.733333 0 1 0 68.266667 384 440.661333 440.661333 0 0 0 512 827.733333m0 68.266667a512 512 0 1 1 512-512A512 512 0 0 1 512 896z"  horiz-adv-x="1024" />

    
    <glyph glyph-name="dingdan" unicode="&#58883;" d="M800.038-32.016H223.962c-52.98 0-95.984 43.003-95.984 95.984V703.86c0 52.98 43.004 95.984 95.984 95.984h575.904c52.98 0 95.983-43.003 95.983-95.984v-639.892c0.173-52.809-43.003-95.984-95.811-95.984zM223.962 736.027c-17.545 0-31.994-14.45-31.994-31.995V64.14c0-17.718 14.449-31.995 31.994-31.995h575.904c17.717 0 31.994 14.277 31.994 31.995V704.032c0 17.546-14.277 31.995-31.994 31.995H223.962zM640.925 351.231H287.78c-17.718 0-31.995 14.277-31.995 31.995 0 17.717 14.277 31.995 31.995 31.995h353.145c17.717 0 31.994-14.278 31.994-31.995 0-17.718-14.277-31.995-31.994-31.995z m93.919-190.763H287.608c-17.718 0-31.995 14.277-31.995 31.994s14.277 31.995 31.995 31.995h447.236c17.718 0 31.995-14.277 31.995-31.995s-14.277-31.994-31.995-31.994zM255.785 590.675c0-26.49 21.502-47.992 47.992-47.992s47.992 21.502 47.992 47.992-21.502 47.992-47.992 47.992-47.992-21.502-47.992-47.992z m207.277 0c0-26.49 21.502-47.992 47.992-47.992s47.992 21.502 47.992 47.992-21.502 47.992-47.992 47.992-47.992-21.502-47.992-47.992z m208.138 0c0-26.49 21.5-47.992 47.991-47.992s47.992 21.502 47.992 47.992-21.502 47.992-47.992 47.992-47.992-21.502-47.992-47.992z"  horiz-adv-x="1024" />

    
    <glyph glyph-name="dizhi1" unicode="&#58909;" d="M492.911995 240.900006a30.03 30.03 0 0 1 19.087-6.822c6.766 0 13.531 2.264 19.088 6.821 10.295 8.406 252.205998 178.670998 252.205997 383.952997C783.292992 774.362001 661.587994 896 511.997995 896c-149.588999 0-271.289997-121.638999-271.289997-271.148997 0-205.279998 241.907998-375.545996 252.203997-383.951997z m19.087 594.892995c116.382999 0 211.059998-94.619999 211.059998-210.941998 0-146.164999-155.883998-270.541997-211.089998-320.666997-55.202999 50.068-211.025998 174.239998-211.025998 320.666997 0 116.320999 94.673999 210.941998 211.055998 210.941998z m465.176995-216.294998l-120.469998-90.309999c-13.85-9.23-17.588-27.896-8.35-41.735 9.203-13.825 27.85-17.526 41.763999-8.358l76.991 59.115999v-466.993995l-243.787998-135.199999L345.557997 139.330007c-8.91 4.762-19.793 4.732-28.676-0.096L56.889999-17.091991V398.222005L167.292998 479.100004c13.852 9.234 17.591 27.903 8.353 41.739-9.233 13.845-27.911 17.6-41.762999 8.349l-120.469999-90.31A30.085 30.085 0 0 1 0 413.838005v-481.633996c0-10.616 5.618-20.464 14.738-25.906999a30.28 30.28 0 0 1 29.793-0.53l286.851997 172.796998 377.176996-202.984998a30.137 30.137 0 0 1 14.262-3.579c4.621 0 9.235 1.051 13.474 3.17l271.059997 150.509998c10.202 5.118 16.644 15.522 16.644 26.923V594.448003c0 11.109-6.115 21.3-15.91 26.541-9.765 5.227-21.676 4.651-30.914-1.49z"  horiz-adv-x="1024" />

    
    <glyph glyph-name="cloud-box" unicode="&#59054;" d="M133.273 624.454l378.050 171.841 378.050-171.841v-481.154l-378.050-171.841-378.050 171.841v481.154zM476.955 430.583l-274.945 124.86v-367.843l274.946-125.135v368.118h-0.001zM820.637 187.601v367.842l-274.946-124.86v-368.117l274.946 125.135zM764.788 605.655l-253.465 115.202-253.465-115.202 253.465-115.202 253.465 115.202z"  horiz-adv-x="1024" />

    
    <glyph glyph-name="youhuiquan" unicode="&#58908;" d="M422.4-121.6c-19.2 0-44.8 6.4-64 25.6L262.4 0l25.6 19.2c19.2 19.2 32 44.8 32 70.4s-12.8 51.2-25.6 70.4c-38.4 38.4-102.4 38.4-140.8 0l-25.6-19.2-96 96C0 268.8 0 326.4 32 358.4l512 499.2c19.2 12.8 38.4 25.6 64 25.6s44.8-12.8 57.6-25.6L761.6 768l-25.6-25.6c-19.2-19.2-32-44.8-32-70.4 0-25.6 12.8-51.2 25.6-70.4 38.4-38.4 102.4-38.4 140.8 0l25.6 19.2 25.6-19.2 70.4-76.8c32-32 32-89.6 0-121.6l-512-499.2c-19.2-19.2-38.4-25.6-57.6-25.6z m-70.4 128l51.2-51.2c6.4-6.4 19.2-6.4 32 0l512 499.2c6.4 6.4 6.4 19.2 0 32l-51.2 44.8c-64-44.8-153.6-38.4-211.2 19.2-25.6 32-44.8 76.8-44.8 121.6 0 32 12.8 64 32 96l-51.2 51.2c-6.4 6.4-12.8 6.4-12.8 6.4-6.4 0-12.8 0-12.8-6.4L76.8 320c-12.8-6.4-12.8-19.2 0-32l51.2-51.2c64 44.8 153.6 32 204.8-25.6 32-32 44.8-70.4 44.8-115.2 0-32-6.4-64-25.6-89.6z m569.6 550.4zM345.6 326.4c-6.4 0-19.2 6.4-25.6 12.8-12.8 12.8-12.8 32 0 44.8l198.4 192c12.8 12.8 32 12.8 44.8 0 12.8-12.8 12.8-32 0-44.8l-198.4-192c0-12.8-6.4-12.8-19.2-12.8zM480 192c-6.4 0-19.2 6.4-25.6 12.8-12.8 12.8-12.8 32 0 44.8l198.4 192c12.8 12.8 32 12.8 44.8 0 12.8-12.8 12.8-32 0-44.8l-198.4-192c-6.4-12.8-12.8-12.8-19.2-12.8z"  horiz-adv-x="1024" />

    
    <glyph glyph-name="flyme_icon-" unicode="&#59017;" d="M527.984 7.024L170.688 494.672 296.256 720h483.664l104.928-227.136-356.864-485.84z m-319.36 489.984L528.016 61.12l319.84 435.456L759.44 688H315.056l-106.432-190.992zM686.864 466.672h-320v80h320v-80z m-288 32h256v16h-256v-16z"  horiz-adv-x="1024" />

    
    <glyph glyph-name="fuxuankuangxuanzhong" unicode="&#59200;" d="M793.25 805.875h-562.5A140.625 140.625 0 0 1 90.125 665.25v-562.5A140.625 140.625 0 0 1 230.75-37.875h562.5A140.625 140.625 0 0 1 933.875 102.75v562.5A140.625 140.625 0 0 1 793.25 805.875zM486.687 196.969L258.875 424.78l39.375 39.375L486.688 275.72l267.187 267.187 39.375-39.375z"  horiz-adv-x="1024" />

    
    <glyph glyph-name="tubiaozhizuomoban" unicode="&#58881;" d="M872.757099-127.97707700000001H151.242901c-67.486507 0-114.617029 41.949833-114.617029 102.009156v0.974245l34.385108 806.903885A114.743108 114.743108 0 0 0 185.62801 896h650.45164a114.743108 114.743108 0 0 0 114.617029-114.066867l36.677449-807.396739v-0.504315c0-60.082247-47.130522-102.009156-114.617029-102.009156zM82.472683-26.437850000000026c0.275081-41.113128 37.158841-55.715338 68.770218-55.715338h721.514198c31.599915 0 68.483675 14.590748 68.770218 55.680952l-36.67745 807.33943V781.382971a68.850449 68.850449 0 0 1-68.770217 68.770217H185.62801a68.850449 68.850449 0 0 1-68.770218-68.770217v-0.974245zM328.463751 672.107095m-37.181764 0a37.181764 37.181764 0 1 1 74.363528 0 37.181764 37.181764 0 1 1-74.363528 0ZM694.092074 672.107095m-37.181764 0a37.181764 37.181764 0 1 1 74.363528 0 37.181764 37.181764 0 1 1-74.363528 0ZM550.992713 487.51637h-79.716143c-43.118926 0-83.819433 17.192554-114.61703 48.265231a162.756181 162.756181 0 0 0-47.554605 115.052574 17.192554 17.192554 0 0 0 34.385109 0c0-71.062558 57.308515-128.921234 127.775064-128.921235h79.716144c70.455088 0 127.775064 57.835753 127.775064 128.921235a17.192554 17.192554 0 1 0 34.385108 0 162.756181 162.756181 0 0 0-47.554605-115.052574c-30.774672-31.072677-71.475179-48.265231-114.594106-48.265231z"  horiz-adv-x="1024" />

<!-- 第二期 iconfont-->
    
<missing-glyph />
    
    <glyph glyph-name="x" unicode="x" horiz-adv-x="1001"
d="M281 543q-27 -1 -53 -1h-83q-18 0 -36.5 -6t-32.5 -18.5t-23 -32t-9 -45.5v-76h912v41q0 16 -0.5 30t-0.5 18q0 13 -5 29t-17 29.5t-31.5 22.5t-49.5 9h-133v-97h-438v97zM955 310v-52q0 -23 0.5 -52t0.5 -58t-10.5 -47.5t-26 -30t-33 -16t-31.5 -4.5q-14 -1 -29.5 -0.5
t-29.5 0.5h-32l-45 128h-439l-44 -128h-29h-34q-20 0 -45 1q-25 0 -41 9.5t-25.5 23t-13.5 29.5t-4 30v167h911zM163 247q-12 0 -21 -8.5t-9 -21.5t9 -21.5t21 -8.5q13 0 22 8.5t9 21.5t-9 21.5t-22 8.5zM316 123q-8 -26 -14 -48q-5 -19 -10.5 -37t-7.5 -25t-3 -15t1 -14.5
t9.5 -10.5t21.5 -4h37h67h81h80h64h36q23 0 34 12t2 38q-5 13 -9.5 30.5t-9.5 34.5q-5 19 -11 39h-368zM336 498v228q0 11 2.5 23t10 21.5t20.5 15.5t34 6h188q31 0 51.5 -14.5t20.5 -52.5v-227h-327z" />
    

    
    <glyph glyph-name="shouye1" unicode="&#59590;" d="M930.11372 444.015589L591.304487 796.332167c-20.977316 21.795943-49.219946 33.973019-79.304487 33.973019s-58.327171-11.972419-79.304487-33.973019l-338.706905-352.316578c-34.996303-36.326571-30.493854-67.741381-24.661137-80.941741 4.195463-9.311882 18.009793-34.893974 58.122514-34.893974H177.079245v-270.965524c0-61.49935 44.205856-119.519536 107.035475-119.519536h144.180673V224.521235c0 30.698511-4.604777 47.889677 26.810033 47.889677h113.993805c31.41481 0 26.810033-17.088838 26.810033-47.889677v-286.826421h144.078345c62.829619 0 107.035475 57.917857 107.035475 119.519536V328.282202h49.629259c40.112721 0 53.927051 25.582093 58.122515 34.893975 5.730389 13.098031 10.232837 44.512841-24.661138 80.839412z m-33.461377-59.964425H791.151794v-326.734486c0-30.698511-19.851704-63.648246-51.266514-63.648246h-88.309383V224.521235c0 61.49935-19.749375 103.658639-82.578995 103.658639H455.003098c-62.829619 0-82.578995-42.159288-82.578995-103.658639V-6.536225h-88.309383c-31.41481 0-51.266513 32.949735-51.266514 63.648247V383.846507H127.245328c-1.023284 0-1.841911 3.78615-2.660537 3.888479 1.944239 3.376836 5.321075 11.870091 10.846807 17.702808l338.809233 352.009593c10.02818 10.64215 24.354152 16.986509 38.270811 16.884181 13.81433 0.102328 27.219346-6.344359 37.452183-16.884181l338.706905-351.907265c5.525732-5.730389 8.902568-14.325972 10.744479-17.702808-0.818627 0-1.739582-3.78615-2.762866-3.78615z"  horiz-adv-x="1024" />

    
    <glyph glyph-name="wode1-copy" unicode="&#59347;" d="M658.1 273.9C747.8 323.70000000000005 811 423.4 811 533.1c0 166.2-132.9 299.1-299.1 299.1S212.8 699.3 212.8 533.1c0-113 59.8-209.4 152.9-259.2-126.3-49.8-222.7-159.5-249.3-299-3.3-10 0-19.9 6.6-26.6 3.3-10 13.3-13.3 23.3-13.3h731.1c10 0 19.9 3.3 26.6 13.3 6.6 6.6 10 16.6 6.6 26.6-26.6 139.5-126.3 249.2-252.5 299z"  horiz-adv-x="1024" />

    
    <glyph glyph-name="tubiaozhizuomoban-copy" unicode="&#59348;" d="M872.757099-127.97707700000001H151.242901c-67.486507 0-114.617029 41.949833-114.617029 102.009156v0.974245l34.385108 806.903885A114.743108 114.743108 0 0 0 185.62801 896h650.45164a114.743108 114.743108 0 0 0 114.617029-114.066867l36.677449-807.396739v-0.504315c0-60.082247-47.130522-102.009156-114.617029-102.009156zM82.472683-26.437850000000026c0.275081-41.113128 37.158841-55.715338 68.770218-55.715338h721.514198c31.599915 0 68.483675 14.590748 68.770218 55.680952l-36.67745 807.33943V781.382971a68.850449 68.850449 0 0 1-68.770217 68.770217H185.62801a68.850449 68.850449 0 0 1-68.770218-68.770217v-0.974245zM328.463751 672.107095m-37.181764 0a37.181764 37.181764 0 1 1 74.363528 0 37.181764 37.181764 0 1 1-74.363528 0ZM694.092074 672.107095m-37.181764 0a37.181764 37.181764 0 1 1 74.363528 0 37.181764 37.181764 0 1 1-74.363528 0ZM550.992713 487.51637h-79.716143c-43.118926 0-83.819433 17.192554-114.61703 48.265231a162.756181 162.756181 0 0 0-47.554605 115.052574 17.192554 17.192554 0 0 0 34.385109 0c0-71.062558 57.308515-128.921234 127.775064-128.921235h79.716144c70.455088 0 127.775064 57.835753 127.775064 128.921235a17.192554 17.192554 0 1 0 34.385108 0 162.756181 162.756181 0 0 0-47.554605-115.052574c-30.774672-31.072677-71.475179-48.265231-114.594106-48.265231z"  horiz-adv-x="1024" />

    
    <glyph glyph-name="shouye-copy" unicode="&#59349;" d="M512 832S234.8 592.8 80 463.2c-9.1-8.2-16-20.3-16-34.4C64 404 84 384 108.8 384h89.6v-403.2c0-24.8 20-44.8 44.8-44.8h134.4c24.8 0 44.8 20.1 44.8 44.8V174.89999999999998h179.2v-194.1c0-24.7 20-44.8 44.8-44.8h134.4c24.8 0 44.8 20 44.8 44.8V384h89.6c24.8 0 44.8 20 44.8 44.8 0 14.1-6.9 26.2-17.2 34.4C789 592.8 511.9 832 512 832z"  horiz-adv-x="1024" />

    
    <glyph glyph-name="gouwudai" unicode="&#58897;" d="M757.76 814.08 266.24 814.08c-67.864746 0-122.88-55.015254-122.88-122.88L102.4 76.8c0-67.864746 55.015254-122.88 122.88-122.88l573.44 0c67.864746 0 122.88 55.015254 122.88 122.88L880.64 691.2C880.64 759.064746 825.624746 814.08 757.76 814.08L757.76 814.08zM512 395.487516c-30.187982 0-59.479687 6.048207-87.061369 17.97637-26.599683 11.503482-50.477133 27.959941-70.968677 48.912027-20.460596 20.920401-36.52283 45.277797-47.740653 72.395744-11.606152 28.05647-17.490775 57.84335-17.490775 88.533385l41.018949 0c0-25.282656 4.836552-49.794057 14.375791-72.853584 9.205684-22.254131 22.381855-42.237237 39.162044-59.394456 16.749241-17.12578 36.238154-30.564767 57.925634-39.94386 22.411084-9.692016 46.224426-14.60643 70.779302-14.60643 24.554631 0 48.368219 4.914168 70.779057 14.60643 21.687234 9.379093 41.176393 22.81808 57.925634 39.94386 16.779943 17.157219 29.956114 37.140325 39.162044 59.394456 9.538994 23.059527 14.375545 47.571174 14.375545 72.853584l41.018949 0c0-30.690034-5.884868-60.476914-17.490775-88.533385-11.218069-27.117947-27.280058-51.475343-47.740653-72.395744-20.49179-20.952086-44.368994-37.408299-70.968923-48.912027C571.479687 401.535724 542.187982 395.487516 512 395.487516z"  horiz-adv-x="1024" />

    
    <glyph glyph-name="shousuo" unicode="&#58883;" d="M507.2273 535.416572 112.041796 140.847098l-48.044226 48.049343 394.758786 394.775158 0 0 46.351678 46.355771 454.112592-454.133058-46.350654-46.350654L507.2273 535.416572zM507.2273 535.416572"  horiz-adv-x="1024" />

    
    <glyph glyph-name="xin" unicode="&#58933;" d="M700.856275 740.457458c-74.768891 0-144.295384-72.696696-190.046381-127.260405C465.073224 667.773042 395.563104 740.457458 320.754305 740.457458c-134.789892 0-244.443291-105.780185-244.443291-235.799424 0-77.56968 39.277562-131.98808 70.844511-175.712931 91.752704-126.998439 322.464249-285.038872 332.234777-291.701618 9.410324-6.414083 20.424168-9.629311 31.401174-9.629311 11.005658 0 21.998013 3.215228 31.397081 9.629311 9.782807 6.662747 240.514819 164.703179 332.23887 291.701618 31.586392 43.723827 70.873164 98.143251 70.873164 175.712931C945.299567 634.678296 835.645145 740.457458 700.856275 740.457458L700.856275 740.457458zM700.856275 740.457458"  horiz-adv-x="1024" />

    
    <glyph glyph-name="danpindown" unicode="&#58973;" d="M848.64 325.668571c-4.205714 16.822857-19.382857 29.257143-37.668571 29.257143L518.948571 354.925714c0 0.365714 0 0.731429 0 1.28-21.394286 0-38.765714-17.371429-38.765714-38.765714l0-20.662857 0 0 0-281.051429c4.205714-16.822857 19.382857-29.257143 37.668571-29.257143l20.662857 0 0 0 252.16 0 0 0 20.662857 0c21.394286 0 38.765714 17.371429 38.765714 38.765714-0.365714 0-0.731429 0-1.28 0L848.64 325.668571 848.64 325.668571zM830.354286 781.531429l-20.662857 0 0 0L538.331429 781.531429l0 0-20.662857 0c-18.102857 0-33.28-12.434286-37.668571-29.257143l0-300.434286 0 0 0-20.662857c0-18.102857 12.434286-33.28 29.257143-37.668571l300.434286 0c10.788571 0 19.382857 8.594286 19.382857 19.382857s-8.594286 19.382857-19.382857 19.382857l-290.742857 0 38.582857 0c-34.56 0-38.582857 21.394286-38.582857 38.765714L518.948571 704c0 17.371429 4.022857 38.765714 38.582857 38.765714l233.325714 0c34.56 0 38.582857-21.394286 38.582857-38.765714l0-213.394286c0-10.788571 8.594286-19.382857 19.382857-19.382857s19.382857 8.594286 19.382857 19.382857L868.205714 752.274286C863.817143 769.097143 848.64 781.531429 830.354286 781.531429zM1237.76 781.531429l-20.662857 0 0 0L964.937143 781.531429l0 0-20.662857 0c-21.394286 0-38.765714-17.371429-38.765714-38.765714 0.365714 0 0.731429 0 1.28 0l0-319.817143c4.205714-16.822857 19.382857-29.257143 37.668571-29.257143l20.662857 0 0 0 281.051429 0c16.822857 4.205714 29.257143 19.382857 29.257143 37.668571l0 20.662857 0 0L1275.428571 752.274286C1271.04 769.097143 1255.862857 781.531429 1237.76 781.531429zM1275.245714 317.257143c0 21.394286-17.371429 38.765714-38.765714 38.765714 0-0.365714 0-0.731429 0-1.28L945.554286 354.742857c-10.788571 0-19.382857-8.594286-19.382857-19.382857s8.594286-19.382857 19.382857-19.382857l290.925714 0-38.582857 0c34.56 0 38.582857-21.394286 38.582857-38.765714L1236.48 64c0-17.371429-4.022857-38.765714-38.582857-38.765714l38.582857 0L926.171429 25.234286l38.582857 0c-34.56 0-38.582857 21.394286-38.582857 38.765714L926.171429 277.394286c0 10.788571-8.594286 19.382857-19.382857 19.382857s-19.382857-8.594286-19.382857-19.382857l0-261.668571c4.205714-16.822857 19.382857-29.257143 37.668571-29.257143l20.662857 0 0 0 271.542857 0 0 0L1237.942857-13.531429c18.102857 0 33.28 12.434286 37.668571 29.257143L1275.611429 296.777143l0 0 0 20.48L1275.245714 317.257143z"  horiz-adv-x="1756" />

    
    <glyph glyph-name="xing" unicode="&#58901;" d="M542.362308 875.225789l131.037329-279.652837c4.794049-11.186113 14.382146-17.578178 25.568259-19.176195l294.034983-44.744454c28.764292-4.794049 39.950405-39.950405 19.176195-62.322632L799.642918 253.597483c-7.990081-7.990081-11.186113-20.774211-9.588097-31.960324l49.538503-306.819113c4.794049-28.764292-23.970243-52.734535-49.538503-38.352389L527.980162 21.885132c-9.588097 4.794049-22.372227 4.794049-31.960324 0l-262.074659-145.419475c-25.568259-14.382146-54.332551 7.990081-49.538503 38.352389l49.538503 306.819113c1.598016 11.186113-1.598016 23.970243-9.588097 31.960324L11.820925 470.927687c-20.774211 20.774211-9.588097 57.528584 19.176195 62.322632l294.034983 44.744454c11.186113 1.598016 20.774211 9.588097 25.568259 19.176195l131.037329 279.652837C494.421822 902.392065 529.578178 902.392065 542.362308 875.225789z"  horiz-adv-x="1024" />

    
    <glyph glyph-name="share" unicode="&#58896;" d="M883.303 407.783l-294.015 288.833c-38.598 39.238-39.455-0.842-39.455-0.842v-192.522c-330.774-42.113-416.711-236.382-439.037-334.884-7.881-34.771 13.808-27.79 25.847-14.797 149.181 161.014 412.647 131.69 412.647 131.69v-199.463c-2.18-52.62 43.467-5.857 43.467-5.857l293.918 287.85c19.374 18.091-3.371 39.992-3.371 39.992zM583.804 126.196v192.723c0 0-305.453 18.697-439.911-121.98 0 0 67.94 248.806 438.245 274.361v181.701l270.021-263.591-268.355-263.214z"  horiz-adv-x="1024" />

    
    <glyph glyph-name="xin1" unicode="&#58885;" d="M714.076 787.732c-78.336 0-152.171-35.123-201.436-92.216-0.205 0.24-0.43 0.461-0.64 0.702-0.21-0.241-0.43-0.461-0.64-0.702-49.265 57.088-123.1 92.216-201.436 92.216-138.793 0-246.2-105.374-246.2-241.5 0-166.86 152.171-300.78 382.725-507.156l64.916-57.093 0.64 0.563 0.64-0.563 64.917 57.093c230.553 206.377 382.725 340.296 382.725 507.156-0.005 136.126-107.413 241.5-246.21 241.5zM541.67 75.848l-9.554-8.546-19.476-17.131-0.64 0.568-0.64-0.563-19.476 17.132-9.554 8.545C368.333 177.889 269.9 266.004 204.77 344.8c-63.202 76.544-91.403 145.024-91.403 209.03 0 50.41 21.965 92.779 56.55 126.699 34.448 33.797 75.971 53.084 127.043 55.301 79.81 3.461 129.28-29.271 161.92-58.071C491.13 649.303 512 624 512 624s20.87 25.303 53.12 53.76c32.64 28.8 82.11 61.532 161.92 58.071 51.072-2.217 92.595-21.499 127.043-55.306 34.585-33.92 56.55-76.293 56.55-126.7 0-64.005-28.201-132.48-91.402-209.029C754.099 266 655.667 177.884 541.67 75.848z"  horiz-adv-x="1024" />

    
    <glyph glyph-name="zhankai" unicode="&#58917;" d="M108.202 633.862l423.055-427.869-39.964-39.514L68.238 594.348zM914.303 633.84l39.964-39.513-442.672-447.71-39.963 39.515z"  horiz-adv-x="1024" />

    
    <glyph glyph-name="gouwudai1" unicode="&#58882;" d="M751.874-64.01H276.77c-51.949 0-99.596 40.079-108.541 91.339L99.596 442.915c-4.472 26.146 2.236 52.292 18.578 71.558 16.169 19.265 40.94 30.446 67.601 30.446H842.87c26.662 0 51.26-11.18 67.602-30.446s23.05-45.584 18.405-71.73l-68.461-415.07c-8.945-51.604-56.593-91.684-108.541-91.684zM185.775 480.757c-7.912 0-14.449-2.752-18.577-7.569-4.129-4.988-5.677-11.869-4.3-19.781l68.633-415.586c3.44-20.126 24.598-38.016 45.412-38.016h475.103c20.641 0 41.971 17.89 45.411 38.188l68.462 415.07c1.376 8.084-0.172 14.965-4.3 19.953-4.129 4.989-10.837 7.569-18.578 7.569l-657.266 0.172z m134.687-192.14c-35.263 0-63.989 28.727-63.989 63.99s28.726 63.989 63.99 63.989c35.262 0 63.989-28.727 63.989-63.99 0-35.262-28.727-63.989-63.99-63.989z m0 63.99s-0.172 0 0 0v-31.995 31.994z m385.828-63.99c-35.263 0-63.99 28.727-63.99 63.99s28.727 63.989 63.99 63.989 63.99-28.727 63.99-63.99c0-35.262-28.727-63.989-63.99-63.989z m0 63.99v-31.995 31.994z m31.995 223.446c-17.718 0-31.995 14.277-31.995 31.994 0 91.512-102.176 159.974-193.688 159.974-93.576 0-190.248-59.69-190.248-159.63 0-17.717-14.277-31.994-31.994-31.994-17.718 0-31.995 14.277-31.995 31.994 0 140.02 129.355 223.619 254.41 223.619 121.957 0 257.676-92.028 257.676-223.963-0.172-17.717-14.449-31.994-32.166-31.994z"  horiz-adv-x="1024" />

    
    <glyph glyph-name="arrow-fine-left" unicode="&#58629;" d="M402.752 749.248l-320-320c-24.992-24.992-24.992-65.504 0-90.496l320-320c24.992-24.992 65.504-24.992 90.496 0 24.992 24.992 24.992 65.504 0 90.496l-210.752 210.752h613.504c35.36 0 64 28.64 64 64 0 35.36-28.64 64-64 64h-613.504l210.752 210.752c12.48 12.512 18.752 28.864 18.752 45.248s-6.24 32.768-18.752 45.248c-24.992 24.992-65.504 24.992-90.496 0z"  horiz-adv-x="1024" />

    
    <glyph glyph-name="guanbi" unicode="&#58918;" d="M24.378879-35.781809l931.780672 0.001137 0.001137 931.780672c-514.608125 0-931.780672-417.172547-931.781809-931.781809zM577.741483 352.592174l115.410368-115.638991c9.035736-9.053935 9.05166-23.718806-0.109194-32.897858-9.099432-9.114218-23.799564-9.159715-32.834161-0.109193L544.795853 319.585123 429.386623 203.94727c-9.036873-9.053935-23.674447-9.069859-32.834162 0.109193-9.097157 9.115356-9.143791 23.848473-0.109193 32.898995l115.411505 115.636716L396.442131 468.22889c-9.036873 9.053935-9.050522 23.721081 0.109193 32.900133 9.097157 9.115356 23.800701 9.160853 32.835299 0.109193l115.40923-115.637853 115.41378 115.637853c9.033461 9.052797 23.673309 9.069859 32.831887-0.111468 9.096019-9.113081 9.143791-23.845061 0.111468-32.897858L577.741483 352.592174z"  horiz-adv-x="1024" />

    
    <glyph glyph-name="shoucang" unicode="&#58987;" d="M512-32c-28.928 0-57.92 12.672-86.624 41.376L106.272 332C68.064 379.648 32 424.672 32 512c0 141.152 114.848 256 256 256 53.088 0 104-16.096 147.296-46.592 14.432-10.176 17.92-30.144 7.712-44.608-10.176-14.432-30.08-17.92-44.608-7.712C366.016 691.936 327.808 704 288 704c-105.888 0-192-86.112-192-192 0-61.408 20.288-90.112 59.168-138.688l315.584-318.816C486.72 38.528 499.616 32.192 512 32c12.704-0.192 24.928 6.176 41.376 22.624l316.672 319.904C896.064 402.72 928 450.304 928 512c0 105.888-86.112 192-192 192-48.064 0-94.08-17.856-129.536-50.272l-134.08-134.112c-12.512-12.512-32.736-12.512-45.248 0s-12.512 32.736 0 45.248L562.24 700c48.32 44.192 109.664 68 173.76 68 141.152 0 256-114.848 256-256 0-82.368-41.152-144.288-75.68-181.696l-317.568-320.8C569.952-19.328 540.96-32 512-32z"  horiz-adv-x="1024" />

    
    <glyph glyph-name="zuojiantou" unicode="&#58886;" d="M990.0167144401646 426.62103284411523L179.67303911769557 426.62103284411523 386.60032149596714 625.8238916582716c5.2969053972016455 5.298286238024691 5.2969053972016455 13.885735316543212-1.226433020069766e-15 19.185402395390945l-41.563308773662555 41.56468961448557a13.569522768065841 13.569522768065841 0 0 1-19.186783236213994-2.452866040139532e-15l-260.4900979041975-250.77312103242807c-0.299642458600823-0.25269387061728393-0.5965232355555555-0.5136727861728396-0.8795956042798351-0.7953643140740742l-1.391887549629629-1.3918875496296295-40.174182905679004-38.67320893102882a13.530859225020574 13.530859225020574 0 0 1-3.9381580273251022-10.328689356378598 13.523955020905348 13.523955020905348 0 0 1 3.9353963456790124-10.35354449119341l41.56607045530863-40.065096480658426c0.26926396049382717-0.26374059720164605 0.5495746475720167-0.5109111045267489 0.8312661754732512-0.7511774077366253l260.53980817382705-250.81592709794225a13.56676108641975 13.56676108641975 0 0 1 19.186783236213994 2.452866040139532e-15l41.56607045530863 41.56607045530863c5.2969053972016455 5.296905397201646 5.2969053972016455 13.885735316543212-2.452866040139532e-15 19.186783236213994L181.61450131489715 340.712021038354l808.3994514436214 1.5698342656893005e-13c7.492442305843622 1.226433020069766e-15 13.565380245596701 6.072937939753088 13.565380245596701 13.563999404773664l-9.811464160558128e-15 58.783774677860066c-1.226433020069766e-15 7.489680624197532-6.072937939753088 13.565380245596701-13.565380245596712 13.5653802455967l0.0027616816460905363-0.004142522469135802z"  horiz-adv-x="1024" />

    
    <glyph glyph-name="guanbi1" unicode="&#58907;" d="M511.999792 895.999583a511.999792 511.999792 0 1 1 511.999791-511.999791A511.333125 511.333125 0 0 1 511.999792 895.999583z m0-972.791271A458.874813 458.874813 0 0 0 51.208312 383.999792 458.874813 458.874813 0 0 0 511.999792 844.791271a458.874813 458.874813 0 0 0 460.791479-460.791479 458.874813 458.874813 0 0 0-460.791479-460.79148z m0 0M730.458036 602.458036a22.791657 22.791657 0 0 1-34.124986 0l-184.333258-184.333258-184.333259 184.333258a22.791657 22.791657 0 0 1-34.124986 0 22.791657 22.791657 0 0 1 0-34.124986l184.333259-184.333258-184.333259-184.333259a22.791657 22.791657 0 0 1 0-34.124986 22.791657 22.791657 0 0 1 34.124986 0l184.333259 184.333259 184.333258-184.333259a24.129157 24.129157 0 0 1 34.124986 34.124986l-184.333258 184.333259 184.333258 184.333258a31.041654 31.041654 0 0 1 0 34.124986z m0 0"  horiz-adv-x="1024" />

    
<!-- jiantou -->
    <glyph glyph-name="x" unicode="x" horiz-adv-x="1001"
d="M281 543q-27 -1 -53 -1h-83q-18 0 -36.5 -6t-32.5 -18.5t-23 -32t-9 -45.5v-76h912v41q0 16 -0.5 30t-0.5 18q0 13 -5 29t-17 29.5t-31.5 22.5t-49.5 9h-133v-97h-438v97zM955 310v-52q0 -23 0.5 -52t0.5 -58t-10.5 -47.5t-26 -30t-33 -16t-31.5 -4.5q-14 -1 -29.5 -0.5
t-29.5 0.5h-32l-45 128h-439l-44 -128h-29h-34q-20 0 -45 1q-25 0 -41 9.5t-25.5 23t-13.5 29.5t-4 30v167h911zM163 247q-12 0 -21 -8.5t-9 -21.5t9 -21.5t21 -8.5q13 0 22 8.5t9 21.5t-9 21.5t-22 8.5zM316 123q-8 -26 -14 -48q-5 -19 -10.5 -37t-7.5 -25t-3 -15t1 -14.5
t9.5 -10.5t21.5 -4h37h67h81h80h64h36q23 0 34 12t2 38q-5 13 -9.5 30.5t-9.5 34.5q-5 19 -11 39h-368zM336 498v228q0 11 2.5 23t10 21.5t20.5 15.5t34 6h188q31 0 51.5 -14.5t20.5 -52.5v-227h-327z" />
    

    
    <glyph glyph-name="liwuhezi" unicode="&#58943;" d="M413.46886 483.632136c-1.667664 20.600805-10.134926 38.430767-22.335806 49.26485 71.667993 94.369137 242.272574 116.967127 257.069508 63.202164 14.203796-51.432527 19.397336-184.169392 6.335403-206.437861-16.06774-27.259998-165.135962-15.732488-254.802975 39.734524 8.669273 12.233832 14.001785 28.69843 14.001785 46.938144 0 0 83.398947 58.99862 184.465961 36.52814C507.204743 541.695202 413.46886 483.632136 413.46886 483.632136L413.46886 483.632136zM608.33193 130.065931c-2.865402 33.569613 21.534926 111.068698 46.204601 156.164389-18.804198 2.235013-63.470079 38.969462-111.067265 82.934752-50.267741 7.768104-107.469754 25.301496-149.599754 53.267816-2.401207-2.468544-5.002991-4.700691-7.733719-6.503029C426.072329 332.867597 521.071854 154.063669 608.33193 130.065931L608.33193 130.065931zM53.737742 596.09915c-14.203796-51.432527-19.403067-184.163661-6.335403-206.43213 16.06774-27.265729 165.135962-15.732488 254.802975 39.734524-8.669273 12.228101-14.003218 28.69843-14.003218 46.932413 0 0-83.404678 58.99862-184.398624 36.533871 90.932088 28.833104 184.667972-29.235693 184.667972-29.235693 1.661933 20.600805 10.129195 38.430767 22.395979 49.26485C239.19943 627.266124 68.534676 649.864114 53.737742 596.09915L53.737742 596.09915zM158.469605 369.166505c-47.597187-43.96529-92.268798-80.701172-111.067265-82.934752 24.669675-45.099989 49.064272-122.60194 46.198871-156.164389 87.265807 23.997739 182.266765 202.794503 222.2033 285.863929-2.736459 1.802338-5.266608 4.034486-7.735152 6.503029C265.933628 394.468001 208.737346 376.934608 158.469605 369.166505L158.469605 369.166505zM405.868382 476.333958c0 32.699963-19.732588 59.199198-44.067012 59.199198L340.137501 535.533156c-24.332991 0-44.005406-26.499234-44.005406-59.199198 0-32.699963 19.672415-59.266535 44.005406-59.266535l21.663869 0C386.135793 417.067424 405.868382 443.633995 405.868382 476.333958L405.868382 476.333958zM20.001936 605.400244c6.133392 22.530653 24.132413 37.267414 41.134273 44.261859 17.466056 7.404198 36.131282 9.905693 56.065881 10.001684 51.067188-0.633254 113.664752-17.567777 165.868072-53.799348L283.070162 812 137.600885 812C61.935656 812 0 750.064344 0 674.399115l0-143.035119 8.332588 0C10.868468 559.228595 14.667991 585.498597 20.001936 605.400244L20.001936 605.400244zM886.466438 812 417.732577 812l0-206.902056c52.466937 36.768834 115.534427 53.93259 166.999905 54.531458 19.934599-0.061606 38.536787-2.563102 56.004275-9.9673 17.001861-6.994445 35.000881-21.731206 41.128542-44.261859l0-0.034385c5.333945-19.867262 9.139199-46.137264 11.669348-74.001863l330.46677 0L1024.001418 674.399115C1023.999986 750.064344 962.137397 812 886.466438 812L886.466438 812zM684.601758 371.870011c-12.665075-19.106498-27.535077-22.805732-40.864925-26.706976-5.131934-1.23069-10.465879-2.098907-16.000403-2.798065 14.864271-12.031821 28.800152-20.198216 32.135479-21.596532l50.06573-5.965766-24.737012-45.333519c-10.129195-18.405907-21.267011-45.536963-29.331684-71.369991-8.137741-25.497776-13.067664-51.130227-12.799749-62.199273 0-1.068795 0-2.03157 0.128943-2.833882l4.269448-49.99696-48.403797 13.329848c-60.995805 18.470379-106.198948 74.66377-148.463622 134.735483-11.602011 17.031947-22.532086 34.532388-32.869022 51.836548l0-494.969478 468.733861 0c75.665228 0 137.533548 61.862589 137.533548 137.533548L1023.998553 404.402348 694.137815 404.402348C692.666431 393.634169 691.266683 384.394681 684.601758 371.870011L684.601758 371.870011zM42.135731 320.862996c1.130401 0.469926 3.396934 1.567375 6.133392 3.235038 5.664899 3.302375 13.600629 8.73661 22.532086 15.665151 1.068795 0.833832 2.199196 1.802338 3.267991 2.601785-5.467186 0.699158-10.801131 1.567375-15.933066 2.798065-13.335579 3.901244-28.267187 7.567526-40.864925 26.835919-6.604751 12.395727-8.070404 21.635215-9.470152 32.403394L0 404.402348l0-88.671286 41.867816 5.037376C41.935153 320.80139 42.001057 320.830044 42.135731 320.862996L42.135731 320.862996zM102.869351 96.397461l-48.203219-13.262511 4.136207 49.825036c0 0.6046 0.061606 1.640442 0.061606 2.964258 0.206309 11.036094-4.662008 36.701497-12.928692 62.239389-8.001634 25.765691-19.072113 52.89818-29.133971 71.332741L0 300.167633l0-374.634071c0-75.670959 61.935656-137.533548 137.600885-137.533548l145.469277 0L283.070162 281.066866c-10.000252-16.673772-20.600805-33.500843-31.798795-49.936787C209.068299 171.062664 163.870887 114.896494 102.869351 96.397461L102.869351 96.397461zM102.869351 96.397461"  horiz-adv-x="1025" />

    
    <glyph glyph-name="iconfontyoujiantou" unicode="&#59015;" d="M267.354606 823.994036c-13.515828-12.812817-13.515828-33.603329 0-46.417169l414.889265-393.579937-414.889265-393.565611c-13.515828-12.821003-13.515828-33.604352 0-46.425356 13.508665-12.81998 35.418674-12.81998 48.927339 0l432.159604 410.009118c0 0 18.33867 16.991999 18.33867 29.981848 0 11.971659-18.33867 29.989011-18.33867 29.989011L316.282968 823.994036C302.77328 836.815039 280.863271 836.815039 267.354606 823.994036z"  horiz-adv-x="1024" />

    
    <glyph glyph-name="o3" unicode="&#58888;" d="M486.4 83.2c-19.2-25.6-57.6-25.6-83.2-6.4l-371.2 288c-12.8 6.4-19.2 25.6-6.4 44.8s32 19.2 44.8 6.4l326.4-249.6c25.6-19.2 64-19.2 83.2 6.4l467.2 531.2c12.8 12.8 32 12.8 44.8 0s12.8-32 0-44.8l-505.6-576z"  horiz-adv-x="1024" />

    
    <glyph glyph-name="xiaoxi" unicode="&#58907;" d="M506.480838 1.713711l-83.59683 0L193.004352-123.685579 193.004352 106.190032c-114.594533 80.443168-188.097418 195.893102-188.097418 334.417655 0 242.374995 224.571311 438.876787 501.573905 438.876787 277.00765 0 501.577949-196.501793 501.577949-438.876787C1008.077998 198.190226 783.511743 1.713711 506.480838 1.713711L506.480838 1.713711 506.480838 1.713711zM506.480838 816.806568c-242.374995 0-438.914199-168.431264-438.914199-376.19787 0-127.489261 74.966978-245.444735 188.139885-313.476486l0-139.338499 167.154227 76.617115 83.600875 0c242.374995 0 438.919254 168.431264 438.919254 376.19787C945.401103 648.394516 748.860888 816.806568 506.480838 816.806568L506.480838 816.806568 506.480838 816.806568zM757.303685 377.911581c-34.651866 0-62.721384 28.064462-62.721384 62.716328 0 34.651866 28.069518 62.721384 62.721384 62.721384 34.609399 0 62.678917-28.069518 62.678917-62.721384C819.982602 405.976043 791.912073 377.911581 757.303685 377.911581L757.303685 377.911581 757.303685 377.911581zM506.480838 377.911581c-34.651866 0-62.716328 28.064462-62.716328 62.716328 0 34.651866 28.064462 62.721384 62.716328 62.721384 34.651866 0 62.721384-28.069518 62.721384-62.721384C569.202222 405.976043 541.132704 377.911581 506.480838 377.911581L506.480838 377.911581 506.480838 377.911581zM255.687313 377.911581c-34.613444 0-62.681951 28.064462-62.681951 62.697117 0 34.633666 28.068507 62.721384 62.681951 62.721384 34.651866 0 62.716328-28.069518 62.716328-62.721384C318.403642 405.957843 290.314912 377.911581 255.687313 377.911581L255.687313 377.911581 255.687313 377.911581zM255.687313 377.911581"  horiz-adv-x="1024" />

    
    <glyph glyph-name="conggaodaodipaixu" unicode="&#58935;" d="M773.619756 559.557623 561.405547 191.990918c-5.582403-9.669684-19.538922-9.669684-25.122349 0L324.067965 559.557623c-5.582403 9.669684 1.395857 21.756533 12.560663 21.756533L761.059093 581.314156C772.223899 581.314156 779.202159 569.227307 773.619756 559.557623z"  horiz-adv-x="1024" />

    
    <glyph glyph-name="congdidaogaopaixu" unicode="&#58936;" d="M324.067965 206.494932 536.283198 574.062661c5.582403 9.669684 19.538922 9.669684 25.122349 0l212.215232-367.566705c5.582403-9.669684-1.395857-21.756533-12.560663-21.756533L336.629651 184.739422C325.463822 184.739422 318.485562 196.826271 324.067965 206.494932z"  horiz-adv-x="1024" />

    
    <glyph glyph-name="shangyiye" unicode="&#58902;" d="M349.089012 383.9936l429.087677 429.036479a48.535392 48.535392 0 0 1-0.255988 68.604879 48.381799 48.381799 0 0 1-68.553681 0.20479L254.62931 427.102039a48.842578 48.842578 0 0 1-24.114102-45.05395 48.637787 48.637787 0 0 1 24.1653-41.31652l454.686512-454.635314a48.535392 48.535392 0 0 1 68.604878 0.20479 48.381799 48.381799 0 0 1 0.204791 68.604879l-429.087677 429.036479z"  horiz-adv-x="1024" />

    
    <glyph glyph-name="question" unicode="&#58626;" d="M510.977 827.049c-244.1 0-442.064-197.964-442.064-442.064s197.964-442.064 442.064-442.064 442.064 197.964 442.064 442.064-197.964 442.064-442.064 442.064v0 0zM508.134 75.642c-35.976 0-65.248 28.657-65.248 63.923 0 35.261 29.167 63.922 65.248 63.922 35.97 0 65.241-28.661 65.241-63.922 0-35.266-29.167-63.923-65.241-63.923v0 0zM683.33 437.319c-12.802-20.121-39.941-47.457-81.603-82.112-21.546-17.884-34.957-32.314-40.142-43.291-5.18-10.872-7.622-30.387-7.116-58.538h-92.88c-0.204 13.314-0.406 21.446-0.406 24.395 0 30.079 4.977 54.771 14.936 74.183 9.958 19.411 29.876 41.26 59.655 65.446 29.777 24.289 47.66 40.142 53.456 47.66 8.942 11.889 13.511 24.999 13.511 39.23 0 19.814-8.023 36.784-23.878 51.010-15.853 14.127-37.399 21.243-64.328 21.243-26.017 0-47.766-7.419-65.243-22.157-17.48-14.732-32.521-47.254-36.079-67.376-3.354-19.005-94.916-27.034-93.799 11.483 1.116 38.516 21.139 80.282 55.487 110.565 34.352 30.284 79.472 45.429 135.262 45.429 58.743 0 105.385-15.348 140.141-46.033 34.755-30.69 52.033-66.362 52.033-107.112 0.098-22.56-6.303-43.902-19.006-64.024v0 0zM683.33 437.319z"  horiz-adv-x="1024" />

    
    <glyph glyph-name="kuaidi" unicode="&#59011;" d="M640.21208 680.724005c22.716374-10.93198 30.014594-30.262234 29.862122-53.973262-0.201591-31.366382 0.332575-62.739926-0.199545-94.098121-0.209778-12.323677 4.454452-16.721847 16.656355-16.540722 33.848922 0.500397 67.715241-0.180102 101.56621 0.2722 19.576871 0.261966 35.348066-5.390777 48.614208-20.86726 13.888312-16.202007 29.700439-30.837332 45.387723-45.3867 10.93198-10.137895 16.305361-21.328771 16.177447-36.639479-0.557702-66.713424-0.155543-133.432988-0.273222-200.150506-0.053212-30.366611-13.06762-44.906769-43.36567-47.263443-10.141988-0.788969-11.848862-6.468318-13.46671-14.356986-11.30958-55.123458-65.10274-84.347037-116.354008-62.86784-27.244504 11.418051-43.788296 32.594349-49.246611 61.392232-2.355651 12.432147-7.820106 15.939017-20.014846 15.860223-75.676563-0.491187-151.358243-0.382717-227.036853-0.101307-10.995425 0.040932-16.543791-2.058892-18.629289-14.895245-6.368034-39.199791-40.509622-68.00586-78.889745-68.883857-41.86141-0.956791-76.620052 24.449855-85.606726 64.383356-3.053546 13.571087-7.272637 20.135596-22.77061 20.198018-16.939811 0.067538-30.758538 15.233959-34.398438 32.474622-3.327792 15.763009-2.1295 31.724539-2.049682 47.634904 0.038886 7.840572 3.889587 12.008498 11.855002 12.135388 3.484358 0.055259 6.967692 0.171915 10.45205 0.182148 22.481014 0.064468 22.477944 0.057305 22.891359-21.868053 0.112564-5.956665-0.182149-11.936867 3.076059-17.399275 7.013741-11.759835 17.118889-12.643971 25.847691-2.139734 36.681434 44.147476 96.427166 44.574195 133.092228 0.618077 5.230118-6.269797 10.512425-9.484002 18.857486-9.453302 65.720817 0.24457 131.444704 0.346901 197.163475-0.065492 11.81714-0.074701 15.452947 4.145413 15.427365 15.681144-0.292666 126.9616-0.109494 253.925247-0.26606 380.88787-0.028653 23.585161-9.281387 32.546254-32.514531 32.558534-109.536742 0.054235-219.072461 0.055259-328.609203-0.004094-21.796422-0.01228-29.816073-6.844895-31.80845-28.610618-0.851391-9.29776-4.01443-12.912078-13.535271-13.335726-32.580023-1.451048-32.295544-1.738597-32.19526 30.653137 0.073678 23.707958 7.189749 43.039235 29.906124 53.972239 141.464919-0.00307 282.931884-0.00307 424.397826-0.00307z m193.160302-241.938238c-6.974855 5.574972-15.116279 10.188037-20.669762 16.932648-10.191106 12.375865-22.276353 16.154935-37.950334 15.496949-26.337855-1.106194-52.755528-0.297782-79.139432-0.303922-25.556049-0.00614-25.571399-0.010233-25.573445-24.886807-0.008186-71.187319-0.00614-142.374638 0.005117-213.561957 0.001023-4.479011 0-8.963139 0.202614-13.43601 0.186242-4.102435 0.87595-8.117888 5.822613-9.202593 4.148483-0.909719 7.976672-0.12075 10.92277 3.129271 2.000564 2.207271 3.710508 4.675486 5.625114 6.963598 30.965246 37.006845 84.931345 41.513486 121.386628 9.886161 5.207605-4.517897 9.357112-10.264784 13.929244-15.501042 5.832845-6.680143 13.500479-5.736655 20.803815-4.451382 6.682189 1.174756 5.77861 7.248078 5.78475 12.07706 0.070608 55.754838-0.097214 111.5107 0.178055 167.264515 0.049119 9.897418-4.046153 13.071713-13.425777 12.878308-17.911952-0.369414-35.840276-0.158612-53.758368 0.104377-8.329712 0.121773-14.798031 3.784186-15.746636 12.735046-1.029446 9.723455 5.127787 14.750959 13.792121 16.438391 5.799076 1.128707 11.869329 0.840134 17.813715 1.245363 8.798387 0.599657 17.772782-1.421372 29.997198 6.192026zM287.770076 165.960055c0.152473-22.023596 18.284435-40.36022 39.566134-40.012296 21.818935 0.356111 39.835264 18.343787 40.10337 40.039925 0.284479 22.916942-17.134239 39.788192-40.810475 39.531342-23.426549-0.254803-39.020712-16.129352-38.859029-39.558971z m471.421816 39.559994c-23.340591 0.312108-40.279379-15.381315-40.795125-37.795814-0.51984-22.61609 17.286712-41.383526 39.524179-41.655725 21.370727-0.260943 39.771819 17.954931 40.106439 39.70428 0.348947 22.607904-16.1007 39.443337-38.835493 39.747259zM132.128273 396.794397c6.404873 5.491061 13.889335 6.877641 22.177092 6.860245 71.076802-0.155543 142.154627-0.064468 213.232452-0.150426 4.422729-0.005117 9.077749-0.165776 13.211907-1.51654 6.217608-2.032286 9.523911-6.942109 9.393951-13.701046-0.116657-6.088672-2.966565-10.877745-8.741082-12.544711-5.644557-1.630127-11.68104-2.63706-17.547655-2.65241-68.592214-0.179079-137.184429-0.071631-205.776643-0.174985-9.800203-0.014326-18.791995 1.6158-25.950022 8.936533v14.94334zM260.893962 443.866483c-13.904685 0-27.809369 0.024559-41.714054-0.008187-9.692756-0.023536-17.057491 3.744277-17.505699 14.103206-0.413416 9.547447 6.408967 14.614859 15.145955 15.247262 29.721929 2.148943 59.512419 2.184759 89.226161-0.002046 8.670473-0.638543 15.149025-6.051833 14.538111-15.731286-0.615007-9.748015-7.541767-13.406335-16.488533-13.508665-14.398942-0.164752-28.800953-0.044002-43.201941-0.044003v-0.056281zM209.696929 513.000026c-11.389398 0-22.791076-0.325411-34.1641 0.104377-8.973372 0.338714-15.563464 5.039783-15.811104 14.424524-0.24764 9.380648 6.315846 15.092743 14.994505 15.356757 22.74912 0.691755 45.547359 0.650823 68.298526-0.01842 8.775874-0.257873 14.960737-5.857405 14.863523-15.387455-0.099261-9.730619-6.510274-14.115486-15.498996-14.45113-10.879792-0.405229-21.786189-0.096191-32.68133-0.096191l-0.001024 0.067538zM225.855958 304.155511c-9.946536 0-19.937075-0.580215-29.826306 0.172938-8.792247 0.669242-15.578814 5.674233-15.35778 15.11014 0.215918 9.257851 6.838755 14.531971 15.770172 14.756075 19.882839 0.49835 39.793308 0.458441 59.679218 0.035816 8.860808-0.188288 15.807011-4.830005 16.003485-14.361079 0.211824-10.292414-7.004531-15.07944-16.432251-15.664772-9.909697-0.615007-19.886933-0.138146-29.835515-0.138146l-0.001023 0.089028z"  horiz-adv-x="1024" />

    
    <glyph glyph-name="cha" unicode="&#58891;" d="M909.812-66.028c-13.094 0-26.188 4.996-36.179 14.987L73.958 748.632c-19.98 19.98-19.98 52.378 0 72.359 19.983 19.98 52.38 19.98 72.36 0L945.99 21.317c19.981-19.981 19.981-52.378 0-72.36-9.99-9.99-23.084-14.985-36.179-14.985zM110.138-66.028c-13.094 0-26.188 4.996-36.179 14.987-19.98 19.98-19.98 52.378 0 72.359L873.632 820.99c19.982 19.98 52.377 19.98 72.36 0 19.98-19.981 19.98-52.378 0-72.36L146.316-51.041c-9.99-9.99-23.084-14.986-36.179-14.986z"  horiz-adv-x="1024" />

    
    <glyph glyph-name="ccgl-zhouzhuanxiang-4" unicode="&#58881;" d="M86.55 618.831l404.591-229.268c7.012-3.973 15.594-3.973 22.607 0l404.591 229.268c15.964 9.046 15.362 32.247-1.050 40.453l-404.591 202.296c-6.455 3.227-14.052 3.227-20.506 0l-404.591-202.296c-16.412-8.206-17.014-31.407-1.050-40.453v0zM109.157 658.724l-1.050-40.453 404.591 202.296h-20.506l404.591-202.296-1.050 40.453-404.591-229.268h22.607l-404.591 229.268zM479.517 390.628v-440.498c0-17.55 18.913-28.593 34.196-19.966l431.564 243.597c7.203 4.066 11.657 11.695 11.657 19.966v296.7c0 12.662-10.265 22.927-22.927 22.927s-22.927-10.265-22.927-22.927v-296.7l11.657 19.966-431.564-243.597 34.196-19.966v440.498c0 12.662-10.265 22.927-22.927 22.927s-22.927-10.265-22.927-22.927v0zM514.271-30.228l-404.591 243.597 11.101-19.642v431.564c0 12.662-10.265 22.927-22.927 22.927-12.662 0-22.927-10.265-22.927-22.927v-431.564c0-8.041 4.212-15.494 11.101-19.642l404.591-243.597c10.848-6.532 24.937-3.032 31.467 7.816 6.532 10.848 3.032 24.937-7.816 31.467v0zM193.948 443.796l134.864-80.918c10.858-6.515 24.94-2.993 31.455 7.864 6.515 10.858 2.993 24.94-7.864 31.455l-134.864 80.918c-10.858 6.515-24.94 2.993-31.455-7.864-6.515-10.858-2.993-24.94 7.864-31.455v0z"  horiz-adv-x="1024" />

    
    <glyph glyph-name="kefu" unicode="&#58945;" d="M788.266667 490.666667h-42.666667A234.666667 234.666667 0 0 1 277.333333 490.666667h-42.666666a277.333333 277.333333 0 0 0 553.6 0zM760.32 229.333333H721.066667a21.333333 21.333333 0 0 0-21.333334 21.333334v234.666666a21.333333 21.333333 0 0 0 21.333334 21.333334h39.253333a139.093333 139.093333 0 1 0 0-277.333334z m-17.92 42.666667h17.92a96.426667 96.426667 0 1 1 0 192h-17.92zM288.853333 229.333333h-39.466666a139.093333 139.093333 0 1 0 0 277.333334h39.253333a21.333333 21.333333 0 0 0 21.333333-21.333334v-234.666666a21.333333 21.333333 0 0 0-21.12-21.333334z m-39.253333 234.666667a96.426667 96.426667 0 1 1 0-192h17.92v192zM600.96 52.693333l-13.866667 40.32A237.44 237.44 0 0 1 738.133333 256l41.386667-10.666667a277.333333 277.333333 0 0 0-178.56-192.64zM525.653333-21.333333a80.213333 80.213333 0 1 0 80.213334 80.213333A80.426667 80.426667 0 0 0 525.653333-21.333333z m0 117.76a37.546667 37.546667 0 1 1 37.546667-37.546667 37.546667 37.546667 0 0 1-37.546667 37.333333z"  horiz-adv-x="1024" />

    
    <glyph glyph-name="jian" unicode="&#58929;" d="M192 448h640c35.328 0 64-28.672 64-64s-28.672-64-64-64H192c-35.392 0-64 28.672-64 64s28.608 64 64 64z"  horiz-adv-x="1024" />

    
    <glyph glyph-name="chadiao" unicode="&#59002;" d="M509.4 791.7c-222.6 0-403.1-180.5-403.1-403.1s180.5-403.1 403.1-403.1S912.5 166 912.5 388.6 732 791.7 509.4 791.7z m162.9-525.2l-40.7-40.7-122.2 122.1-122.2-122.1-40.7 40.7 122.2 122.2-122.2 122.1 40.7 40.7 122.2-122.2 122.2 122.2 40.7-40.7-122.2-122.2 122.2-122.1z"  horiz-adv-x="1024" />

    
    <glyph glyph-name="jia" unicode="&#58959;" d="M567-8.804V775.464c0 30.987-25.093 56.081-56.024 56.081-30.93 0-56.023-25.094-56.023-56.081v-784.268c0-30.93 25.094-56.023 56.023-56.023 30.93 0 56.023 25.153 56.023 56.023zM903.139 439.382H118.842c-30.988 0-56.052-25.093-56.052-56.023 0-30.93 25.064-56.023 56.052-56.023H903.14c30.93 0 56.023 25.093 56.023 56.023 0 30.93-25.152 56.023-56.023 56.023z"  horiz-adv-x="1024" />

    
    <glyph glyph-name="fenxiang" unicode="&#58903;" d="M916.48 378.88c-16.384 0-29.184-13.312-29.184-29.184v-278.016c0-35.84-29.184-64.512-64.512-64.512h-621.056c-35.84 0-64.512 29.184-64.512 64.512v584.192c0 35.84 29.184 64.512 64.512 64.512h202.24c16.384 0 29.184 13.312 29.184 29.184 0 16.384-13.312 29.184-29.184 29.184h-202.24c-68.096 0-123.392-55.296-123.392-123.392v-584.192c0-68.096 55.296-123.392 123.392-123.392h621.056c68.096 0 123.392 55.296 123.392 123.392v278.016c-0.512 16.384-13.312 29.696-29.696 29.696z m-617.984-172.544c-3.072-15.872 7.68-31.232 23.552-34.304 1.536-0.512 3.584-0.512 5.12-0.512 13.824 0 26.112 9.728 28.672 24.064 0 1.024 23.552 124.928 104.96 248.32 47.104 71.68 104.448 128.512 170.496 169.472 62.976 38.912 133.632 62.976 211.456 72.192l-95.744-98.816c-11.264-11.776-11.264-30.208 0.512-41.472 5.632-5.632 13.312-8.192 20.48-8.192 7.68 0 15.36 3.072 20.992 8.704l148.48 153.088 0.512 0.512 0.512 0.512 0.512 0.512 0.512 0.512 0.512 0.512 0.512 0.512 0.512 0.512s0 0.512 0.512 0.512c0 0 0 0.512 0.512 0.512 0 0 0 0.512 0.512 0.512 0 0.512 0.512 0.512 0.512 1.024v0.512s0 0.512 0.512 0.512v0.512s0 0.512 0.512 0.512v0.512s0 0.512 0.512 0.512v0.512 0.512 0.512 0.512 1.024 0.512 1.024 0.512 0.512 0.512 0.512 0.512 0.512 0.512 1.024 0.512 1.024 1.536 0.512 1.024 0.512 1.024 0.512 0.512 0.512 0.512 1.024 0.512c0 0.512 0 0.512-0.512 1.024 0 0 0 0.512-0.512 0.512v0.512c0 0.512 0 0.512-0.512 1.024v0.512c0 0.512 0 0.512-0.512 1.024s-0.512 1.024-1.024 1.536c0 0.512-0.512 1.024-0.512 1.024l-0.512 0.512v0.512 0.512 0.512l-0.512 0.512v0.512l-0.512 0.512-1.024 1.024-1.024 1.024-1.024 1.024-1.024 1.024c-0.512 0-0.512 0.512-1.024 0.512h-0.512s-0.512 0-0.512 0.512h-0.512s-0.512 0-0.512 0.512h-0.512-0.512s-0.512 0-0.512 0.512l-0.512 0.512s-0.512 0-0.512 0.512c0 0-0.512 0-0.512 0.512 0 0-0.512 0-0.512 0.512 0 0-0.512 0-0.512 0.512 0 0-0.512 0-0.512 0.512h-0.512-0.512l-216.064 71.68c-15.36 5.12-32.256-3.072-37.376-18.432s3.072-32.256 18.432-37.376l87.04-28.672c-64-13.824-123.392-37.376-177.152-71.168-73.216-45.056-136.704-108.032-188.416-186.88-88.576-132.608-113.664-264.192-114.688-269.824z"  horiz-adv-x="1024" />

    
    <glyph glyph-name="baozhang" unicode="&#58940;" d="M871.613653 802.181049H838.342694a586.224933 586.224933 0 0 0-130.272207 14.058152A630.742414 630.742414 0 0 0 547.33895 885.124145a66.073314 66.073314 0 0 1-72.633784 0 596.065639 596.065639 0 0 0-157.451301-70.759364 593.722614 593.722614 0 0 0-131.209418-14.058152h-32.333749a66.073314 66.073314 0 0 1-46.860507-17.338388 63.730288 63.730288 0 0 1-20.618622-46.860506v-191.190865C88.574594-47.868534 483.140057-124.25116 500.009839-127.06279h23.430253c16.869782 2.81163 414.246875 79.194256 414.246875 671.97966V705.179801a158.857116 158.857116 0 0 1-20.618622 78.725651 65.604709 65.604709 0 0 1-45.454692 18.275597z m-154.171065-223.05601q-70.759364-115.276845-105.436139-187.442025A1041.240449 1041.240449 0 0 1 557.179657 256.724756a909.562426 909.562426 0 0 1-33.27096-140.581518H391.762069a909.562426 909.562426 0 0 0 66.073314 209.466462 1499.5362 1499.5362 0 0 0 131.209418 228.679271H311.630604V646.604168h405.811984z"  horiz-adv-x="1024" />

    
    <glyph glyph-name="arrow-right" unicode="&#58912;" d="M694.475 63.547000000000025l-56.28499999999998-58.26100000000002-393.9960000000001 392.0209999999999 393.99599999999987 392.0210000000002 56.28500000000001-58.26099999999999-331.78599999999994-333.76100000000014z"  horiz-adv-x="1024" />

    
    <glyph glyph-name="gouwuchekong" unicode="&#58625;" d="M332.8 105.47199999999998q19.456 0 36.864-7.168t30.208-19.968 20.48-30.208 7.68-36.864-7.68-36.864-20.48-30.208-30.208-20.48-36.864-7.68q-20.48 0-37.888 7.68t-30.208 20.48-20.48 30.208-7.68 36.864 7.68 36.864 20.48 30.208 30.208 19.968 37.888 7.168zM758.784 103.42399999999998q19.456 0 37.376-7.168t30.72-19.968 20.48-30.208 7.68-36.864-7.68-36.864-20.48-30.208-30.72-20.48-37.376-7.68-36.864 7.68-30.208 20.48-20.48 30.208-7.68 36.864 7.68 36.864 20.48 30.208 30.208 19.968 36.864 7.168zM930.816 685.056q28.672 0 44.544-7.68t22.528-18.944 6.144-24.064-3.584-22.016-13.312-37.888-22.016-62.976-23.552-68.096-18.944-53.248q-13.312-40.96-33.28-56.832t-49.664-15.872l-35.84 0-65.536 0-86.016 0-96.256 0-253.952 0 14.336-92.16 517.12 0q49.152 0 49.152-41.984 0-20.48-9.728-35.84t-38.4-14.336l-49.152 0-94.208 0-118.784 0-119.808 0-99.328 0-55.296 0q-20.48 0-34.304 9.216t-23.04 24.064-14.848 32.256-8.704 32.768q-1.024 6.144-5.632 29.696t-11.264 58.88-14.848 78.848-16.384 87.552q-19.456 103.424-44.032 230.4l-76.8 0q-15.36 0-25.6 7.68t-16.896 18.432-9.216 23.04-2.56 22.528q0 20.48 13.824 33.792t37.376 12.288l103.424 0q20.48 0 32.768-6.144t19.456-15.36 10.24-18.944 5.12-16.896q2.048-8.192 4.096-23.04t4.096-30.208q3.072-18.432 6.144-38.912l700.416 0zM892.928 593.9200000000001l-641.024 2.048 35.84-185.344 535.552-1.024z"  horiz-adv-x="1028" />

    
    


  </font>
</defs>
</svg>
